<?xml version="1.0" encoding="UTF-8" standalone="no"?>
<!-- Created with Inkscape (http://www.inkscape.org/) -->

<svg
   width="210mm"
   height="297mm"
   viewBox="0 0 210 297"
   version="1.1"
   id="svg5"
   inkscape:version="1.2 (dc2aedaf03, 2022-05-15)"
   sodipodi:docname="myfirsthouse.svg"
   xmlns:inkscape="http://www.inkscape.org/namespaces/inkscape"
   xmlns:sodipodi="http://sodipodi.sourceforge.net/DTD/sodipodi-0.dtd"
   xmlns="http://www.w3.org/2000/svg"
   xmlns:svg="http://www.w3.org/2000/svg"
   xmlns:rdf="http://www.w3.org/1999/02/22-rdf-syntax-ns#"
   xmlns:cc="http://creativecommons.org/ns#"
   xmlns:dc="http://purl.org/dc/elements/1.1/">
  <title
     id="title4730">myfirsthouse</title>
  <sodipodi:namedview
     id="namedview7"
     pagecolor="#ffffff"
     bordercolor="#000000"
     borderopacity="0.25"
     inkscape:showpageshadow="2"
     inkscape:pageopacity="0.0"
     inkscape:pagecheckerboard="0"
     inkscape:deskcolor="#d1d1d1"
     inkscape:document-units="mm"
     showgrid="false"
     inkscape:zoom="1.0544998"
     inkscape:cx="146.51497"
     inkscape:cy="439.07074"
     inkscape:window-width="1920"
     inkscape:window-height="1017"
     inkscape:window-x="-8"
     inkscape:window-y="-8"
     inkscape:window-maximized="1"
     inkscape:current-layer="layer2" />
  <defs
     id="defs2">
    <inkscape:perspective
       sodipodi:type="inkscape:persp3d"
       inkscape:vp_x="0 : 148.5 : 1"
       inkscape:vp_y="0 : 1000 : 0"
       inkscape:vp_z="210 : 148.5 : 1"
       inkscape:persp3d-origin="105 : 99 : 1"
       id="perspective2913" />
  </defs>
  <g
     inkscape:groupmode="layer"
     id="layer2"
     inkscape:label="Layer 2">
    <rect
       style="fill:#ffd5d5;stroke-width:0.264583"
       id="rect4293"
       width="25.370968"
       height="29.451612"
       x="64.758064"
       y="86.048386" />
    <rect
       style="fill:#00ffff;stroke-width:0.264583"
       id="rect2234"
       width="217.78888"
       height="313.13425"
       x="-3.0109062"
       y="-7.0254478" />
    <rect
       style="fill:#6c5353;stroke-width:0.264583"
       id="rect4298"
       width="21.290316"
       height="51.274185"
       x="72.564522"
       y="74.516121" />
  </g>
  <g
     inkscape:label="Layer 1"
     inkscape:groupmode="layer"
     id="layer1">
    <rect
       style="fill:#e3dbdb;stroke-width:0.264583"
       id="rect3832"
       width="2.6612909"
       height="11.177418"
       x="138.03226"
       y="102.54839"
       ry="0" />
    <rect
       style="fill:#e3dbdb;stroke-width:0.264583"
       id="rect3832-6"
       width="2.306452"
       height="11.532259"
       x="142.1129"
       y="101.66129"
       ry="0" />
    <rect
       style="fill:#e3dbdb;stroke-width:0.264583"
       id="rect3832-6-5"
       width="2.1290362"
       height="10.112902"
       x="145.48387"
       y="102.37096"
       ry="0" />
    <rect
       style="fill:#008000;stroke-width:0.264583"
       id="rect2288"
       width="217.28708"
       height="50.68359"
       x="-2.5090885"
       y="255.42522" />
    <rect
       style="fill:#ff5555;stroke-width:0.264583"
       id="rect2446"
       width="112.87331"
       height="90.535042"
       x="47.941422"
       y="166.60347"
       ry="0" />
    <rect
       style="fill:#676c53;stroke-width:0.264583"
       id="rect3555-3"
       width="37.967743"
       height="41.870972"
       x="85.29567"
       y="215.49103"
       ry="0" />
    <path
       sodipodi:type="star"
       style="fill:#000080;stroke-width:0.264583"
       id="path2954"
       inkscape:flatsided="true"
       sodipodi:sides="3"
       sodipodi:cx="104.67742"
       sodipodi:cy="134.48387"
       sodipodi:r1="65.314423"
       sodipodi:r2="32.657211"
       sodipodi:arg1="0.51712455"
       sodipodi:arg2="1.5643221"
       inkscape:rounded="0"
       inkscape:randomized="0"
       d="M 161.45161,166.77419 48.326086,167.5066 104.25456,69.170818 Z"
       inkscape:transform-center-x="-0.21142766"
       inkscape:transform-center-y="-16.145162" />
    <rect
       style="fill:#5599ff;stroke-width:0.264583"
       id="rect3555"
       width="39.387096"
       height="33.354839"
       x="56.774189"
       y="173.16129" />
    <rect
       style="fill:#5599ff;stroke-width:0.264583"
       id="rect3555-8"
       width="39.387096"
       height="33.354839"
       x="112.47126"
       y="173.16129" />
    <path
       style="fill:#ffff00;stroke-width:0.264583"
       id="path3707"
       sodipodi:type="arc"
       sodipodi:cx="118.93185"
       sodipodi:cy="238.80644"
       sodipodi:rx="3.9032259"
       sodipodi:ry="3.5483866"
       sodipodi:start="0"
       sodipodi:end="6.1996327"
       sodipodi:open="true"
       sodipodi:arc-type="arc"
       d="m 122.83507,238.80644 a 3.9032259,3.5483866 0 0 1 -3.8217,3.54761 3.9032259,3.5483866 0 0 1 -3.98134,-3.39941 3.9032259,3.5483866 0 0 1 3.65538,-3.68962 3.9032259,3.5483866 0 0 1 4.13405,3.24529" />
    <rect
       style="fill:#e3dbdb;stroke-width:0.264583"
       id="rect3828"
       width="3.1935484"
       height="23.774193"
       x="132.70969"
       y="102.90322" />
    <rect
       style="fill:#e3dbdb;stroke-width:0.264583"
       id="rect3830"
       width="17.741945"
       height="2.4838581"
       x="132.35483"
       y="106.80645" />
    <rect
       style="fill:#e3dbdb;stroke-width:0.264583"
       id="rect4069-1-0"
       width="39.641754"
       height="3.6181946"
       x="56.719986"
       y="206.32762"
       ry="0.53225803"
       rx="0" />
    <rect
       style="fill:#e3dbdb;stroke-width:0.264583"
       id="rect4069-1-0-8"
       width="39.641754"
       height="3.6181946"
       x="112.28263"
       y="206.38252"
       ry="0.53225803"
       rx="0" />
    <path
       style="fill:#6c5353;stroke-width:0.264583"
       d="m 81.080643,69.370966 c -0.62671,0.596008 -0.532257,0.874307 -0.532257,1.596776"
       id="path4448" />
    <path
       style="fill:#ffe6d5;stroke-width:0.264583"
       id="path4562"
       d="m 79.218141,67.047059 c -0.67141,0.837308 -0.613535,1.790922 -0.06207,2.704166 0.188121,0.311539 0.388178,0.642408 0.689456,0.846558 1.332196,0.902705 2.776199,1.628256 4.164299,2.442385 0.339206,0.06018 0.673404,0.166481 1.017621,0.180541 0.730274,0.02983 1.74306,-0.204872 1.900005,-1.075037 0.132003,-0.731872 -0.234884,-1.013428 -0.612865,-1.578631 -0.314407,-0.228047 -0.603477,-0.495908 -0.943221,-0.684138 -1.410091,-0.781238 -2.817648,-1.57852 -4.296958,-2.219098 -0.353612,-0.153122 -2.071414,-0.218712 -1.981065,0.612947 0.02569,0.236546 0.250222,0.404784 0.375333,0.607174 1.423654,0.669658 2.78602,1.489194 4.270965,2.008973 0.353126,0.123603 0.755772,-0.02098 1.115581,-0.12351 1.092764,-0.311385 2.230448,-1.172101 2.285929,-2.418093 0.01572,-0.352954 -0.164047,-0.687303 -0.246068,-1.030952 -1.492364,-1.844526 -3.90267,-3.452955 -6.333567,-3.299957 -0.587518,0.03698 -1.422974,0.204864 -1.802582,0.755002 -0.149188,0.216204 -0.120052,0.51146 -0.180078,0.767191 1.351806,2.03545 0.80491,1.486593 4.85117,3.243408 0.594389,0.258074 1.923192,-0.02307 2.384385,-0.4865 0.688406,-0.691743 0.294947,-1.368094 0.113157,-2.123633 -0.361757,-0.385903 -0.67283,-0.826527 -1.085271,-1.157711 -0.469775,-0.377219 -1.008507,-0.662056 -1.53829,-0.94896 -1.565693,-0.847907 -3.113693,-1.739524 -4.744759,-2.45364 -0.511734,-0.224049 -1.800209,-0.407366 -2.432447,-0.149159 -0.184097,0.07518 -0.275008,0.287314 -0.412515,0.430972 0.140229,0.230637 0.18242,0.565076 0.420682,0.691915 2.355567,1.253982 3.680894,2.412119 5.985883,1.756648 0.481865,-0.137028 0.974315,-0.311087 1.369555,-0.618906 0.934567,-0.727858 0.872604,-1.318564 1.095243,-2.362522 -0.179496,-0.455515 -0.26203,-0.962462 -0.538488,-1.366544 -1.116706,-1.632209 -4.892096,-3.289985 -5.791184,-3.717645 -0.595873,-0.283429 -2.005653,-0.486227 -2.68423,-0.208915 -0.306133,0.125109 -0.480811,0.454203 -0.721219,0.681305 -0.02995,0.329753 -0.136774,0.661487 -0.08986,0.989259 0.283581,1.98102 3.023815,3.102842 4.379492,3.624598 0.240911,0.09272 0.104881,-0.623668 -0.110109,-0.766545 -1.400357,-0.930646 -2.995387,-1.528416 -4.493083,-2.292626 -0.562853,-0.106304 -1.116467,-0.290322 -1.688557,-0.318913 -1.044019,-0.05217 -2.686783,0.166127 -3.643553,0.664845 -0.402625,0.209871 -0.800264,0.504413 -1.021758,0.900761 -0.172722,0.309081 -0.196487,0.727517 -0.07378,1.059641 0.125511,0.339701 0.502804,0.521327 0.754206,0.781991 -1.059104,1.107917 5.750422,3.265401 6.258406,1.175589 0.355484,-1.462434 -1.909545,-2.668783 -2.804906,-3.247464 -1.577287,-0.779899 -3.088963,-1.709645 -4.731859,-2.3397 -0.449871,-0.172527 -0.971166,-0.115689 -1.445156,-0.0292 -0.343202,0.06262 -0.683882,0.22514 -0.938096,0.464061 -0.544359,0.511617 -0.550315,1.30833 0.134638,1.779638 1.432412,0.985628 3.046762,1.676394 4.570143,2.514592 0.559072,0.09941 1.109755,0.277585 1.677223,0.298217 0.496337,0.01804 1.006964,-0.02797 1.478655,-0.183483 0.324742,-0.107061 0.645967,-0.303967 0.844444,-0.582401 0.366221,-0.513758 0.137663,-1.213943 -0.357298,-1.532017 -1.261269,-0.810527 -2.63457,-1.431795 -3.951854,-2.147692 -0.13013,0.05862 -0.501576,0.08637 -0.39039,0.17585 1.198483,0.964576 2.463303,1.865725 3.822491,2.586403 0.383469,0.203327 0.862669,0.100407 1.295863,0.127489 0.525156,0.03283 2.151592,0.178533 2.690844,-0.236794 0.262477,-0.20216 0.236625,-0.618918 0.354936,-0.928378 -0.170238,-0.389559 -0.228335,-0.850879 -0.510717,-1.168683 -1.303832,-1.467387 -6.706815,-4.033639 -7.029953,-4.193931 -1.191776,-0.591185 -3.312792,-1.318993 -4.654555,-1.572864 -0.548108,-0.103706 -1.112369,-0.08572 -1.668552,-0.128574 -0.31355,0.07917 -0.687409,0.03639 -0.940644,0.237519 -0.166799,0.132477 -0.308917,0.489723 -0.142669,0.622888 1.231577,0.986496 2.613033,1.788091 4.02703,2.488493 0.362987,0.1798 0.805706,0.09399 1.210609,0.1059 1.344808,0.03954 1.142679,0.0013 2.384634,-0.328586 0.367384,-0.270431 0.928446,-0.518682 0.949335,-1.08458 0.0084,-0.228849 -0.0413,-0.519198 -0.23142,-0.646864 -0.664295,-0.44609 -3.145473,-2.595346 -4.84786,-2.169555 -0.262324,0.06561 -0.482981,0.243322 -0.724472,0.364983 -0.09103,0.219577 -0.257931,0.421521 -0.273087,0.658735 -0.04104,0.64229 0.375717,1.008304 0.89961,1.283087 0.783789,0.411099 3.381047,2.549083 5.110581,1.914149 0.203948,-0.07487 0.344683,-0.264565 0.517025,-0.396846 -0.07002,-0.25382 0.0073,-0.612836 -0.210045,-0.761458 -3.018473,-2.064059 -3.383487,-2.47574 -6.094889,-2.547807 -0.884949,-0.02352 -2.272027,-0.04821 -3.101665,0.458872 -0.274847,0.167989 -0.381358,0.519242 -0.572035,0.778864 0.864206,2.428428 0.278908,1.461606 4.763865,3.437776 0.409716,0.180528 0.901282,0.157004 1.341157,0.07353 1.002676,-0.190269 0.46767,-0.990316 -0.108381,-1.330687 -1.558382,-0.9208 -3.253301,-1.588 -4.879951,-2.381999 -1.109191,-0.122986 -2.704764,-0.370874 -3.84066,-0.227375 -0.431771,0.05455 -0.894281,0.139073 -1.242991,0.399458 -0.622509,0.46483 -0.152823,1.196504 0.20773,1.550603 0.283143,0.27808 0.664159,0.434613 0.996238,0.651918 1.800868,0.867407 3.481149,2.384417 5.567722,2.188242 0.245928,-0.02313 0.531823,-0.05296 0.704609,-0.229481 0.402045,-0.410742 -0.09701,-0.945418 -0.396192,-1.117873 -1.346142,-0.775957 -2.760827,-1.426411 -4.14124,-2.139614 -0.321506,0.03775 -0.647755,0.04651 -0.964512,0.113244 -0.496274,0.104558 -1.962584,0.456973 -1.722673,1.3168 0.07266,0.260403 0.273447,0.495694 0.50568,0.634106 1.392335,0.829841 2.877404,1.493141 4.316108,2.239711 1.015614,0.158456 2.446478,0.626687 3.194396,-0.425649 0.174652,-0.245737 0.306018,-0.571772 0.252535,-0.868471 -0.1982,-1.099537 -1.189234,-1.560859 -1.970456,-2.155134 -2.982856,-1.615064 -3.635023,-2.453373 -6.243716,-2.954745 -0.336103,-0.0646 -0.681792,-0.06094 -1.022689,-0.09141 0,0 3.059988,2.264166 3.059988,2.264166 v 0 c 0.296122,0.02514 0.597638,0.01376 0.88837,0.07537 1.71032,0.362476 2.277282,0.990621 -0.09413,-0.640353 0.519248,0.34277 1.710013,0.949423 1.999335,1.678149 0.07984,0.201094 0.01397,0.459348 -0.104034,0.640696 -0.618075,0.949836 -2.139437,0.283351 -2.940296,0.155038 0.747625,0.505484 1.529945,0.963113 2.242875,1.516454 0.177647,0.13788 -0.452268,-0.112612 -0.622885,-0.259098 -0.08492,-0.07291 -0.130323,-0.240372 -0.06303,-0.329811 0.248335,-0.330076 1.095145,-0.533575 1.422072,-0.573204 0.295486,-0.03582 0.595294,0.0024 0.892942,0.0035 -0.82655,-0.543017 -1.675273,-1.0537 -2.479651,-1.62905 -0.164013,-0.117313 0.368334,0.164309 0.551066,0.249584 0.082,0.03826 0.308777,0.05883 0.243012,0.120986 -0.138282,0.130681 -0.356135,0.157927 -0.54624,0.165574 -0.361498,0.01455 -1.288825,-0.396097 -1.080741,-0.100134 0.4905,0.697653 1.379154,1.003588 2.068729,1.505381 -0.3287,-0.170619 -0.67102,-0.317233 -0.986099,-0.51186 -0.378537,-0.233828 -0.9774,-0.657209 -0.628473,-0.935755 0.295492,-0.235894 0.69659,-0.325567 1.07197,-0.370845 1.266785,-0.152808 2.545588,0.137469 3.782219,0.327562 -0.511607,-0.417954 -1.186643,-0.692433 -1.534819,-1.25386 -0.164246,-0.26484 0.659312,0.04461 0.904322,0.237193 0.0981,0.07711 -0.135657,0.260787 -0.260152,0.26914 -0.425159,0.02853 -1.482741,-0.534363 -1.267433,-0.166645 0.283376,0.483973 3.161726,2.378122 1.472851,0.813321 0.112342,-0.204243 0.138353,-0.490805 0.337023,-0.612728 0.775777,-0.476099 2.158246,-0.434715 2.964106,-0.372168 0.562517,0.04366 1.850631,0.800389 1.671704,0.265303 -0.196514,-0.587676 -3.251629,-2.019424 -1.590554,-1.223444 -0.116795,0.08409 -0.21101,0.216403 -0.350387,0.252275 -0.252519,0.06499 -0.959178,-0.151654 -0.781275,0.03898 0.655037,0.701926 1.619342,1.040405 2.359369,1.652069 0.214188,0.177035 -0.541086,-0.167611 -0.764046,-0.333465 -0.145542,-0.108265 -0.25192,-0.280237 -0.297113,-0.455909 -0.03396,-0.132022 0.05098,-0.267833 0.07647,-0.401752 0.204002,-0.07778 0.39511,-0.208359 0.612002,-0.233333 0.262017,-0.03017 0.982488,0.250227 0.787948,0.07214 -0.766106,-0.70132 -1.720929,-1.163706 -2.59434,-1.725776 -0.140542,-0.09044 0.338913,0.152146 0.39415,0.309882 0.13421,0.383257 -0.512702,0.721379 -0.663073,0.837338 -1.062453,0.24588 -1.125413,0.347906 -2.282116,0.221078 -0.40024,-0.04388 -1.452239,-0.546106 -1.18233,-0.247328 0.661384,0.732118 1.624695,1.12041 2.45396,1.654961 0.08258,0.05323 -0.286078,-0.146907 -0.209005,-0.207846 0.204058,-0.161332 0.499338,-0.146061 0.749007,-0.219091 1.819015,0.123002 1.68031,0.01064 3.674655,0.704152 0.819136,0.284845 1.561234,0.796951 2.407576,0.986229 0.305694,0.06837 -0.991595,-0.757894 -0.716521,-0.608037 1.62084,0.883029 1.383242,0.764995 2.166578,1.964407 -0.02408,0.206513 0.09647,0.497986 -0.0722,0.619538 -0.527828,0.380365 -2.120487,0.201792 -2.587471,0.140401 -0.449745,-0.05913 -1.580013,-0.655037 -1.332834,-0.274685 1.392185,2.142249 1.466935,2.095108 2.635666,1.995935 -0.880092,-0.564185 -1.760186,-1.128371 -2.64028,-1.692558 0.20823,0.136723 0.479264,0.207922 0.624692,0.410167 0.356169,0.495327 -0.18709,0.90256 -0.590897,1.023549 -0.438282,0.131318 -0.911156,0.163298 -1.366988,0.123923 -0.565693,-0.04887 -1.10616,-0.25689 -1.659239,-0.385334 0.604747,0.428667 1.175644,0.909619 1.814242,1.286007 0.258154,0.152154 -0.558173,-0.326538 -0.662778,-0.607343 -0.198239,-0.532149 0.736216,-0.910185 0.978696,-0.942851 0.440968,-0.0594 1.418868,0.517777 1.332376,0.08131 -0.128694,-0.649433 -1.039935,-0.819661 -1.559904,-1.229492 0.988277,0.585052 1.766477,0.924536 2.524151,1.795272 0.193106,0.221922 0.443609,0.481478 0.422376,0.774885 -0.0177,0.244689 -0.286256,0.439444 -0.516401,0.524412 -0.343228,0.126714 -1.286518,-0.241332 -1.095343,0.07062 0.46845,0.764392 1.425564,1.087533 2.138349,1.631299 -0.291364,-0.156805 -0.66771,-0.211791 -0.874093,-0.470416 -0.554747,-0.695169 0.145407,-1.331605 0.704024,-1.620581 0.970529,-0.50206 2.490528,-0.624271 3.536675,-0.516445 0.59145,0.06096 1.156174,0.278167 1.734259,0.417253 -0.699444,-0.475321 -1.554654,-0.778221 -2.098333,-1.425959 -0.155702,-0.185504 0.451204,-0.364976 0.674274,-0.270663 1.086681,0.459444 1.990707,1.27031 3.026442,1.835309 0.198226,0.108132 -0.366927,-0.27463 -0.499949,-0.457092 -0.507651,-0.69632 -0.418507,-0.765013 -0.481123,-1.532342 0.651115,-0.623197 0.502105,-0.699172 1.643403,-0.556858 0.470795,0.05871 1.548951,0.808847 1.375077,0.367419 -0.247044,-0.627195 -1.022985,-0.964557 -1.676061,-1.131562 -0.912458,-0.233334 2.984407,1.802371 1.82273,2.158905 -0.06018,0.37651 -0.0333,0.777814 -0.180533,1.129527 -0.397338,0.94915 -1.007822,1.246584 -1.990476,1.469562 -0.474208,0.107603 -1.614363,-0.359857 -1.455381,0.09968 0.29377,0.849151 1.492552,1.033944 2.082142,1.711987 0.147994,0.170198 -0.447178,-0.05925 -0.670767,-0.08887 0.296257,-0.381624 0.226526,-0.411511 0.969441,-0.343305 0.47365,0.04349 1.466779,0.767382 1.395656,0.297088 -0.09385,-0.620602 -1.525465,-0.485124 -1.519007,-1.11275 0.01085,-1.054214 2.680026,2.227768 2.602762,1.796939 0.116768,0.305276 0.317373,0.590647 0.350303,0.915831 0.0796,0.786077 -0.427585,1.029068 -1.152591,1.10767 -0.406694,0.04409 -1.463355,-0.467003 -1.219377,-0.138644 0.350874,0.472225 3.497392,2.291911 1.51602,0.903697 -2.15e-4,-0.171955 -0.09083,-0.369456 -5.29e-4,-0.515866 0.123819,-0.20102 0.35184,-0.335039 0.573995,-0.414962 0.319209,-0.114839 0.666837,-0.155284 1.00607,-0.153492 1.298485,0.0069 2.958473,0.991883 -0.959874,-1.252628 -0.313016,-0.179303 0.555651,0.460179 0.833477,0.690272 0.117827,0.277283 0.331171,0.531397 0.353486,0.83185 0.0848,1.14178 -1.075978,1.844651 -2.024904,2.039633 -1.690264,0.347308 -2.398265,-0.913564 1.282875,1.764845 -0.179822,-0.05247 -0.383101,-0.05426 -0.539465,-0.157403 -0.0558,-0.03681 -0.06224,-0.169321 -0.0031,-0.200523 0.183029,-0.0966 0.402326,-0.120311 0.609278,-0.119396 0.308948,0.0013 1.130641,0.350502 0.918231,0.126154 -0.476258,-0.503021 -3.792974,-2.402798 -1.247564,-0.923748 0.297717,0.322842 0.752618,0.648925 0.750359,1.160642 -0.0032,0.721262 -1.102313,0.757129 -1.549376,0.699228 -0.321681,-0.04166 -0.626005,-0.170228 -0.939007,-0.255339 4.13757,2.554364 2.287733,1.666812 1.559449,0.671094 -0.388755,-0.531505 -0.663133,-1.281265 -0.318593,-1.901346 0.06161,-0.110876 0.169821,-0.188465 0.254728,-0.282699 0,0 -3.343002,-2.106221 -3.343002,-2.106221 z" />
    <path
       style="fill:#ffe6d5;stroke-width:0.264583"
       id="path4564"
       d="m 78.85509,66.044984 c -0.128243,0.07813 -0.268478,0.139329 -0.384733,0.234384 -0.510667,0.417533 -1.165172,1.160296 -1.301901,1.822836 -0.128378,0.62208 0.06942,0.807458 0.327594,1.326049 1.955599,1.181201 2.744734,2.494635 4.663744,2.389569 0.245475,-0.01344 0.5066,-0.01355 0.727443,-0.121574 0.202433,-0.09901 0.431117,-0.252407 0.484687,-0.471297 0.209294,-0.855149 -0.596974,-1.275527 -1.083839,-1.737495 -3.118628,-1.745347 -3.637714,-2.419566 -6.331378,-3.154576 -0.546447,-0.149106 -1.099402,-0.287875 -1.661906,-0.354381 -0.380061,-0.04493 -1.896333,-0.08866 -2.347262,0.236157 -0.194511,0.140107 -0.189547,0.440375 -0.284321,0.660561 0.232883,0.302406 0.383098,0.692486 0.698653,0.90722 1.418349,0.965184 2.922749,1.803444 4.445633,2.593461 0.500578,0.259681 1.060709,0.38563 1.601993,0.543819 1.190382,0.34789 2.402888,0.555427 3.62603,0.738445 0.09112,0.03292 0.35573,0.14978 0.27336,0.09877 -1.115611,-0.690837 -2.193486,-1.456724 -3.378002,-2.021316 -0.11408,-0.05437 -0.163867,0.193805 -0.229317,0.301911 -0.250825,0.41429 -0.453689,0.785963 -0.366511,1.305666 0.04995,0.297793 0.230013,0.55839 0.345019,0.837583 0.262671,0.25282 0.47893,0.565121 0.788014,0.758463 1.274588,0.797287 3.499371,2.469655 5.438182,2.690987 0.471898,0.05387 1.472584,0.0816 1.827673,-0.437997 0.174723,-0.255669 0.100841,-0.611073 0.15126,-0.916612 -0.170244,-0.35107 -0.280673,-0.738081 -0.510731,-1.053211 -0.464216,-0.63587 -1.499976,-1.465725 -2.172938,-1.849628 -0.95019,-0.542051 -3.489891,-2.667804 -5.389901,-2.351066 -0.237101,0.03952 -0.43293,0.20901 -0.649393,0.313518 -0.03739,0.206751 -0.277495,0.490585 -0.112176,0.62025 1.253482,0.983128 2.612112,1.868797 4.078708,2.490771 0.47956,0.203377 1.043353,-0.02962 1.559531,-0.09962 1.174528,-0.159301 2.270863,-0.358916 3.227332,-1.131552 0.341797,-0.276106 0.523444,-0.705863 0.785167,-1.058796 2.62e-4,-0.379421 0.115774,-0.776685 7.94e-4,-1.138262 -0.119227,-0.374914 -0.348597,-0.745812 -0.671436,-0.970645 -2.002777,-1.394785 -3.239108,-2.500307 -5.388136,-2.637493 -0.33314,-0.02127 -0.672439,-0.02008 -1.000612,0.04105 -0.208817,0.03889 -0.389562,0.169442 -0.584343,0.254164 0.0105,0.18868 -0.126513,0.462465 0.03155,0.566039 1.269471,0.831863 2.626479,1.5469 4.039269,2.101496 0.671981,0.263789 2.158691,-0.727837 2.154494,-1.463318 -0.0021,-0.392057 -0.288792,-0.729009 -0.433189,-1.093512 -0.443822,-0.345898 -0.849029,-0.748078 -1.331468,-1.037694 -1.544545,-0.927211 -3.114749,-1.817986 -4.735515,-2.604404 -0.636077,-0.308634 -2.065081,-0.625005 -2.845268,-0.632894 -0.195003,-0.0019 -0.480113,-0.04195 -0.570182,0.131021 -0.101484,0.19489 0.113572,0.42453 0.170357,0.636794 1.877782,0.935839 3.168647,2.238111 5.152019,2.155325 0.291725,-0.01217 0.598353,-0.02569 0.863259,-0.148476 0.509561,-0.236183 0.697738,-0.756087 0.328049,-1.25508 -0.251735,-0.339781 -0.670986,-0.514845 -1.006478,-0.772269 -1.529019,-0.796078 -2.99294,-1.732163 -4.58706,-2.388232 -1.21213,-0.498861 -4.286469,0.07426 -3.970644,1.934197 0.0507,0.298574 0.304374,0.523663 0.456562,0.785492 1.677223,0.933302 3.015562,2.61411 4.943166,2.216428 0.236064,-0.0487 0.477229,-0.129614 0.667935,-0.277022 0.243851,-0.188483 0.426791,-0.696761 0.03504,-0.911944 -1.278914,-0.702477 -2.651416,-1.219166 -3.977122,-1.82875 -0.183739,0.18529 -0.441327,0.319191 -0.551214,0.555866 -0.121203,0.261046 -0.132723,0.570592 -0.104793,0.857043 0.02964,0.304023 0.115075,0.61349 0.273624,0.874583 0.857768,1.412531 4.641776,2.84298 4.907161,2.954885 0.289472,0.122063 0.628073,-0.01725 0.942109,-0.02588 0.191149,-0.114763 0.477084,-0.143235 0.573448,-0.344289 0.100359,-0.209383 0.111032,-0.555561 -0.07659,-0.692356 -2.082122,-1.518113 -3.734866,-3.091749 -6.088549,-2.022123 -0.22234,0.101044 -0.409128,0.266821 -0.613693,0.400232 -0.717648,4.062235 6.615779,2.909803 5.146278,0.184021 -0.324622,-0.602144 -0.905647,-1.025491 -1.358471,-1.538238 -1.788351,-1.586243 -3.837983,-2.814986 -5.814756,-4.139329 -0.413671,-0.277141 -0.840383,-0.539033 -1.223074,-0.857589 -0.598828,-0.498475 -0.562104,-0.382839 -0.384643,-0.80804 0.649005,-0.444161 1.426173,-0.639696 2.107933,-1.019924 0.298876,-0.166685 0.962864,-0.482491 0.795737,-1.014142 -0.07983,-0.25395 -0.352825,-0.398711 -0.529238,-0.598067 -1.486895,-0.682133 -2.906464,-1.535949 -4.460685,-2.046399 -0.594759,-0.195336 -2.327328,0.295696 -2.853764,0.504415 -0.371697,0.14737 -0.812138,0.252278 -1.055856,0.569262 -0.178584,0.23227 -0.288158,0.698121 -0.05624,0.877157 1.403811,1.083699 3.078023,1.762424 4.617032,2.643635 2.108745,0.376094 4.30806,0.780142 6.455897,0.426992 0.428525,-0.07046 1.79791,-0.279686 1.38992,-1.229272 -0.173924,-0.404802 -0.625917,-0.620226 -0.938874,-0.930339 -2.861006,-1.499373 -3.876355,-2.53896 -6.588824,-2.926429 -0.571973,-0.0817 -1.154813,-0.119044 -1.731398,-0.08193 -0.414436,0.02667 -0.858804,0.05963 -1.215901,0.27164 -0.748054,0.444113 0.0217,1.007086 0.257659,1.308833 1.478391,0.687424 2.883765,1.560946 4.435171,2.062271 0.397206,0.128354 0.830664,-0.112231 1.230728,-0.231379 0.364678,-0.108606 0.7532,-0.209745 1.049996,-0.44786 0.63197,-0.507018 0.525558,-1.186505 -0.148812,-1.658445 -1.396561,-0.977352 -2.948834,-1.710775 -4.423254,-2.566162 -1.550686,-0.386683 -1.670952,-0.506656 -3.279664,-0.547709 -0.477009,-0.01217 -0.961787,-0.02658 -1.429999,0.06541 -0.275164,0.05406 -0.612722,0.124788 -0.7582,0.364527 -0.387342,0.638315 0.556836,1.107956 0.831654,1.327018 2.1356,1.159396 3.196619,2.229128 5.260615,2.537621 0.253563,0.0379 0.519377,0.09591 0.768353,0.03475 0.156011,-0.03833 0.244067,-0.20897 0.366101,-0.313457 0,0 -3.337803,-2.082197 -3.337803,-2.082197 v 0 c -0.04396,0.03695 -0.07459,0.106972 -0.131879,0.110834 -1.382583,0.09325 -3.883054,-1.631169 0.633235,1.101694 -0.250016,-0.128956 -0.499827,-0.258295 -0.750041,-0.386864 -0.140271,-0.07207 -0.461169,-0.06245 -0.421407,-0.215061 0.05341,-0.204999 0.34889,-0.266814 0.557114,-0.305808 0.444987,-0.08334 0.904915,-0.07373 1.357152,-0.05269 1.593424,0.07414 1.706988,0.218577 3.231813,0.695547 -0.661172,-0.413459 -1.313095,-0.842092 -1.983517,-1.240377 -0.25137,-0.149336 0.594386,0.231664 0.725487,0.493003 0.08624,0.1719 -0.05644,0.419992 -0.208253,0.538057 -0.277016,0.215437 -0.638228,0.304308 -0.97958,0.385731 -0.379635,0.09056 -1.352905,-0.215969 -1.164101,0.12561 0.43397,0.785133 1.424953,1.090211 2.137429,1.635316 -0.224687,-0.08936 -0.486347,-0.115663 -0.674058,-0.268092 -0.08583,-0.06969 -0.154287,-0.271835 -0.0582,-0.32653 0.317696,-0.180845 0.703051,-0.230804 1.068189,-0.248393 0.555342,-0.02675 1.116073,0.02169 1.663864,0.116787 2.013363,0.349543 2.741448,1.170612 0.222927,-0.667208 0.329055,0.184052 0.710912,0.295566 0.987163,0.552156 0.123595,0.114798 0.251217,0.367954 0.132982,0.488265 -0.255521,0.260014 -0.655679,0.3439 -1.014431,0.408675 -0.62489,0.112832 -1.266526,0.133075 -1.901335,0.117803 -2.007865,-0.0483 -2.574875,-0.282006 -4.507817,-0.729437 0.575963,0.44913 1.090482,0.990795 1.727893,1.34739 0.167918,0.09394 -0.357958,-0.36136 -0.249695,-0.520419 0.301143,-0.442431 1.948277,-0.821658 2.301351,-0.864878 0.481756,-0.05897 1.642665,0.443947 1.456044,-0.0041 -0.343612,-0.824953 -1.422537,-1.082061 -2.133806,-1.623092 0.219485,0.06294 0.472458,0.05638 0.658452,0.188823 0.08849,0.06301 0.120896,0.232777 0.05727,0.320825 -0.136396,0.188736 -0.371716,0.283298 -0.575403,0.396153 -0.774758,0.429271 -1.678625,0.612675 -2.340808,1.239475 -0.07025,0.211982 -0.270076,0.420648 -0.210757,0.635947 0.167381,0.607507 1.655906,1.458278 1.91529,1.628257 1.97132,1.291854 4.0156,2.486337 5.802728,4.039915 0.374951,0.368331 1.680458,1.219829 1.507834,2.114933 -0.04639,0.240522 -0.286134,0.41401 -0.49335,0.544642 -0.219684,0.138494 -0.917618,0.04258 -0.742892,0.23471 1.572035,1.728581 3.98404,2.313088 2.525257,1.939615 0.491083,-0.316373 0.66865,-0.506304 1.322364,-0.543216 0.347639,-0.01963 1.277054,0.361328 1.039066,0.107164 -0.674153,-0.719971 -1.657855,-1.069774 -2.467657,-1.632852 -0.1133,-0.07878 0.383026,0.03947 0.37415,0.177178 -0.0097,0.150522 -0.266195,0.141928 -0.399291,0.212892 -1.739799,-0.114877 -1.298943,-0.231471 1.473988,1.524421 0.272381,0.172476 -0.562059,-0.339964 -0.767778,-0.588196 -0.157102,-0.189566 -0.484362,-0.990798 -0.3503,-1.310634 0.06739,-0.160766 0.274923,-0.2144 0.412382,-0.321599 -0.940679,-0.623832 -1.940687,-1.166325 -2.822038,-1.871493 -0.116909,-0.09354 0.311626,-0.08882 0.448315,-0.02772 0.06488,0.029 0.01617,0.169953 -0.04337,0.208735 -0.163007,0.106165 -0.361,0.164627 -0.55485,0.180883 -0.264752,0.0222 -0.989393,-0.247954 -0.79416,-0.06776 0.722821,0.667152 1.646706,1.076388 2.47006,1.614582 -0.193156,-0.173495 -0.466264,-0.286832 -0.579469,-0.520488 -0.102621,-0.211812 -0.120999,-0.49593 -0.01474,-0.705929 0.356195,-0.703845 1.334801,-0.912765 2.004806,-0.929733 1.689132,-0.04278 2.680599,1.046186 -0.336151,-1.047607 0.330097,0.173405 0.679747,0.313833 0.990293,0.520221 0.287055,0.190773 0.591826,0.47448 0.05974,0.664483 -1.607336,0.57396 -4.054046,-1.496359 0.764365,1.605692 -0.202747,0.05885 -0.40849,0.108212 -0.608237,0.176541 -0.123426,0.04222 0.248452,-0.101693 0.378849,-0.09807 0.367294,0.01019 0.736632,0.05153 1.09352,0.138943 0.536771,0.131471 1.520373,1.064728 1.57593,0.514892 0.06144,-0.608041 -1.041781,-0.643551 -1.525143,-1.017518 -0.405641,-0.313838 0.860867,0.557731 1.291299,0.836596 0.452091,0.59885 0.875215,0.701559 0.2492,1.353355 -0.179064,0.186438 -0.415853,0.331864 -0.665882,0.397515 -0.293579,0.07709 -1.122823,-0.200472 -0.910444,0.01638 1.936059,1.976839 3.809261,1.569468 2.228776,1.830117 0.592984,-0.247134 0.522126,-0.28348 1.359699,-0.174283 0.359108,0.04682 1.310079,0.511775 1.056526,0.253198 -0.59549,-0.607293 -1.374429,-1.026486 -2.152235,-1.370624 -0.324718,-0.143669 0.585296,0.439881 0.754351,0.752137 0.149556,0.27624 0.10401,0.619585 0.156017,0.929378 -0.206391,0.316417 -0.32621,0.710739 -0.619175,0.949248 -0.854406,0.695595 -2.087822,0.927304 -3.140832,0.977812 -0.518602,0.02487 -1.80236,-0.567965 -1.553541,-0.112275 0.422537,0.773834 3.121293,2.549673 2.237304,1.410914 0.161107,-0.06641 0.309536,-0.186378 0.483319,-0.199237 1.326076,-0.09811 2.219302,1.014643 -1.126074,-1.261906 -0.392237,-0.266917 0.812559,0.493578 1.189223,0.782055 0.349517,0.267687 0.68943,0.553956 0.983263,0.881801 0.220276,0.245774 0.364564,0.550278 0.546846,0.825418 0.01736,0.192611 0.156609,0.41511 0.0521,0.577834 -0.277064,0.431395 -1.306529,0.306716 -1.599113,0.254818 -1.070694,-0.189913 -3.309903,-1.39917 1.059138,1.023453 0.293553,0.162774 -0.537276,-0.402508 -0.805916,-0.603761 -0.324074,-0.506581 -0.563049,-0.61959 -0.395139,-1.232437 0.04836,-0.176511 0.172739,-0.323974 0.279818,-0.472397 0.08992,-0.124632 0.420878,-0.23817 0.308314,-0.342802 -2.52081,-2.343105 -1.921886,-2.265294 -3.424293,-2.358676 -1.165104,-0.112273 -2.295139,-0.316495 -3.413345,-0.682607 -0.546412,-0.1789 -1.910143,-1.114729 -1.607243,-0.626036 0.400333,0.645891 1.298422,0.789874 1.950561,1.179942 0.26525,0.158657 -0.526573,-0.32379 -0.78986,-0.485683 0.0035,-0.585793 -0.112745,-0.483243 0.849828,-0.56683 1.048456,-0.09105 1.877258,0.09241 2.893486,0.39792 0.577122,0.173501 1.724705,1.224783 1.697273,0.622769 -0.03108,-0.681895 -1.146379,-0.74135 -1.719569,-1.112023 0.302543,0.221417 0.625482,0.41737 0.907629,0.664255 0.306356,0.26807 0.598567,0.5319 0.02746,0.722474 -1.342506,0.447984 -4.089945,-1.819757 1.302176,1.521873 -0.250401,-0.303171 -0.560094,-0.545455 -0.513331,-0.998551 0.06593,-0.638752 0.709327,-1.243984 1.215168,-1.565492 0.118906,-0.07558 0.258061,-0.11317 0.387093,-0.169757 0,0 -3.274539,-2.208842 -3.274539,-2.208842 z" />
    <path
       style="fill:#ffe6d5;stroke-width:0.264583"
       id="path4566"
       d="m 64.207691,51.808673 c -0.291484,-0.09609 -0.585931,-0.183626 -0.874453,-0.288271 -0.380058,-0.137846 -0.765006,-0.266436 -1.130628,-0.438963 -0.402834,-0.190087 -1.581984,-0.814612 -1.16953,-0.646422 0.79489,0.324144 1.486193,0.915813 2.320975,1.115962 0.263104,0.06308 -0.419669,-0.401806 -0.458896,-0.669509 -0.02365,-0.161425 0.20311,-0.255373 0.304665,-0.383061 1.036026,-0.215358 1.209252,-0.34 2.379022,-0.122733 0.492678,0.09151 1.817505,0.770001 1.435862,0.445262 -5.040849,-4.289205 -1.930786,-0.975235 -1.876919,-0.501509 0.02122,0.186647 -0.166434,0.336825 -0.249648,0.505237 -0.9032,0.158242 -1.454087,0.323507 -2.420517,0.14287 -0.473961,-0.08859 -1.7819,-0.722442 -1.36367,-0.482494 5.061071,2.903649 1.897856,1.303602 2.059969,0.280464 0.03955,-0.249606 0.345382,-0.36902 0.518072,-0.55353 0.385231,-0.09188 0.761355,-0.239024 1.155695,-0.275648 0.7557,-0.07019 2.013487,0.06543 2.735228,0.314336 0.330772,0.114075 1.238094,0.651211 0.920271,0.504883 -3.310884,-1.52436 -2.187159,-2.222008 -3.458048,-1.24696 -0.38453,-0.0078 -0.773655,0.0364 -1.153584,-0.02339 -1.142219,-0.179776 -2.745128,-0.715221 -3.779874,-1.167828 -0.604517,-0.264422 -2.414423,-0.983538 -1.75895,-0.907931 1.958255,0.225883 2.580021,1.899023 1.836883,0.322739 0.123169,-0.04804 0.237477,-0.137382 0.369512,-0.144113 0.267094,-0.01363 0.539218,0.01651 0.797851,0.08459 0.302487,0.07961 1.147196,0.497035 0.868989,0.354083 -0.991555,-0.509494 -1.954784,-1.099288 -3.011339,-1.454896 -0.188288,-0.06337 -0.348702,0.194234 -0.535808,0.261025 -0.386672,0.138033 -0.786968,0.234429 -1.180451,0.351642 -1.507644,0.130262 -1.721276,0.229394 -3.250494,0.0285 -0.478795,-0.0629 -0.959858,-0.143669 -1.418254,-0.295566 -0.233574,-0.0774 -0.837739,-0.516565 -0.630804,-0.383432 3.451278,2.220405 2.095675,1.786099 3.873569,2.286987 0.256043,0.08811 0.520774,0.154167 0.768131,0.264329 0.253944,0.113094 0.974568,0.535385 0.73016,0.402942 -0.915789,-0.496257 -1.807176,-1.039741 -2.744314,-1.494395 -0.04789,-0.02323 0.04214,0.139422 -0.0071,0.159519 -0.158155,0.0645 -0.339667,0.03649 -0.509823,0.05129 -0.284229,0.02471 -0.568836,0.04485 -0.853252,0.06728 0.610859,0.644883 -2.055291,-0.62594 -1.594242,-0.338589 2.964924,1.847905 1.934978,1.445434 3.975447,1.714616 0.762267,0.16573 0.92547,0.151545 1.626296,0.498845 0.222464,0.110244 0.855485,0.503788 0.636177,0.387393 -7.206406,-3.824814 -3.201464,-2.348199 -2.771185,-1.38175 0.02339,0.05254 0.01876,0.113493 0.02814,0.170239 0.149609,1.603576 -0.02172,0.406704 3.573651,2.452679 0.124473,0.07083 0.286752,0.01326 0.428124,0.03617 0.173723,0.02816 0.347996,0.06091 0.514919,0.116676 0.413317,0.138065 0.863418,0.385998 1.248537,0.582179 -0.918739,-0.514617 -1.817756,-1.066152 -2.75622,-1.543852 -0.889103,-0.452572 0.788339,0.507093 0.291767,0.444386 -0.136067,-0.01717 -0.230648,-0.149264 -0.352507,-0.212196 -1.854854,-0.957913 0.167894,0.192913 -1.969077,-1.065657 0.706946,0.345374 1.347536,0.891006 2.120842,1.036125 0.445854,0.08367 -1.091483,-0.833755 -0.583163,-1.160648 0.137665,-0.08853 0.325906,0.04347 0.482499,0.09108 0.970601,0.295127 1.127596,0.437036 2.086102,0.930489 -0.676732,-0.336537 -1.274638,-0.99079 -2.030195,-1.00961 -0.455539,-0.01135 0.669041,0.624192 0.950304,0.98271 0.520229,0.663125 0.968047,1.529442 0.547195,2.363279 -0.05194,0.102915 -0.164227,0.161825 -0.24634,0.242737 -0.790551,1.344155 -0.357569,0.481357 3.59714,2.067229 0.229518,0.09204 0.485542,-0.09655 0.731049,-0.126137 0.845508,-0.101904 1.187834,-0.08723 2.040723,-0.104302 0,0 -3.073101,-2.219724 -3.073101,-2.219724 v 0 c -0.780206,0.02767 -1.328978,0.03321 -2.108036,0.117599 -0.286483,0.03103 -1.060738,-0.0743 -0.855025,0.127479 2.479673,2.432291 4.292939,1.574017 3.026921,2.148949 0.09363,-0.135747 0.217101,-0.255172 0.280879,-0.407244 0.435962,-1.039503 0.123224,-1.889292 -0.509788,-2.772447 -0.272968,-0.380834 -0.548328,-0.782474 -0.930426,-1.053669 -1.387605,-0.984856 -2.893481,-1.791459 -4.340223,-2.68719 -0.65587,-0.303911 -2.415172,-1.358231 -3.104888,-0.475155 -0.142515,0.182467 -0.125494,0.475975 -0.04514,0.693113 0.698359,1.88726 4.578977,2.292366 4.870849,3.566496 0.491927,0.268571 1.586836,0.95413 2.221868,0.988928 0.484367,0.02654 0.860014,-0.207436 0.750731,-0.68154 -0.0365,-0.158332 -0.112821,-0.330259 -0.24883,-0.419156 -1.249476,-0.816668 -2.574396,-1.511633 -3.861594,-2.26745 -0.579099,-0.264541 -0.714036,-0.34938 -1.327332,-0.535699 -0.17621,-0.05353 -0.360709,-0.07658 -0.537057,-0.129659 -0.129744,-0.03905 -0.491802,-0.221673 -0.379288,-0.146177 1.012971,0.679698 2.043504,1.333793 3.088111,1.96379 0.04606,0.02778 -0.04778,-0.0964 -0.07167,-0.144592 0.0077,-0.105018 0.03595,-0.210561 0.02299,-0.315058 -0.197217,-1.589191 -3.310363,-2.386449 -3.79967,-2.681388 -0.717164,-0.432287 -1.530358,-0.642054 -2.353517,-0.748935 -0.284604,-0.0088 -0.573682,-0.07736 -0.853815,-0.02633 -0.434758,0.07919 -1.131658,0.549492 -0.781984,0.802254 0.819753,0.592558 2.920463,2.104086 4.518475,2.299962 0.309967,0.03799 0.623935,0.02827 0.9359,0.0424 0.517585,-0.06133 1.299191,-0.05065 1.715018,-0.485952 0.135723,-0.142079 0.285144,-0.453544 0.130553,-0.574826 -1.176472,-0.922981 -2.541219,-1.577486 -3.833322,-2.330114 -0.243459,-0.141812 -0.503778,-0.255784 -0.76906,-0.350697 -0.277344,-0.09923 -0.568862,-0.153162 -0.853291,-0.229743 -0.239348,0.01032 -0.881187,-0.144513 -0.718043,0.03092 0.868561,0.933985 1.951334,1.645918 2.979405,2.400769 0.353369,0.259458 1.931715,0.430101 1.979451,0.434686 1.614511,0.155051 1.779965,0.06252 3.385679,-0.08943 0.441945,-0.134271 0.915438,-0.190876 1.325835,-0.40281 0.328409,-0.169592 1.082702,-0.435237 0.844852,-0.718153 -0.400791,-0.476737 -3.747254,-3.420544 -5.478679,-2.646569 -0.254257,0.113657 -0.383945,0.40354 -0.575919,0.605309 0.917742,2.305176 0.1963,0.95424 4.466437,3.531369 1.016444,0.61345 2.675252,1.248056 3.79177,1.570726 0.646078,0.186714 1.299252,0.379224 1.969037,0.43978 0.472379,0.04271 0.944414,-0.08913 1.416621,-0.133686 0.186902,-0.204441 0.745096,-0.406615 0.560705,-0.613323 -0.425294,-0.476766 -2.830912,-2.534235 -4.292944,-2.914441 -0.448143,-0.116541 -0.910156,-0.185947 -1.372213,-0.216268 -0.490982,-0.03222 -0.990132,-0.04941 -1.475828,0.02937 -0.461293,0.07481 -0.890325,0.284388 -1.335489,0.42658 -0.235593,0.298323 -0.620954,0.524653 -0.706782,0.894969 -0.07573,0.326739 0.01757,0.752922 0.275024,0.967883 1.895435,1.582573 4.320252,3.431291 6.985301,3.0245 0.438524,-0.06694 0.843783,-0.274164 1.265675,-0.411248 0.130989,-0.275912 0.388852,-0.52234 0.392967,-0.827743 0.0041,-0.306173 -0.123492,-0.659599 -0.370481,-0.840584 -1.967761,-1.441913 -4.52279,-3.252864 -7.188689,-2.897722 -0.416758,0.05552 -0.799838,0.259498 -1.199758,0.38925 -0.159044,0.263988 -0.47583,0.483774 -0.477134,0.791969 -0.0013,0.307636 0.224901,0.608653 0.470419,0.794025 0.888828,0.671089 3.639232,2.520484 5.2886,3.261191 0.782912,0.351594 1.384371,0.515331 2.187527,0.765183 0,0 -3.133005,-2.352093 -3.133005,-2.352093 z" />
    <path
       style="fill:#ffe6d5;stroke-width:0.264583"
       id="path4568"
       d="m 77.750897,68.214268 c -0.622599,0.193495 -1.885273,0.363141 -2.231208,0.990124 -0.07594,0.137642 -0.192497,0.376608 -0.06405,0.467236 1.184833,0.835974 2.519585,1.43611 3.77938,2.154163 0.393668,-0.103775 0.909187,-0.180475 1.217403,-0.495255 0.25473,-0.260152 0.448209,-0.891635 0.03169,-1.17249 -3.695356,-2.491767 -2.92023,-2.228578 -5.613484,-2.538672 -0.451202,0.0208 -0.913516,-0.03926 -1.353603,0.06241 -0.350774,0.08105 -0.740757,0.197088 -0.97023,0.474491 -0.469066,0.567034 -0.143968,1.520253 0.185566,2.009785 1.086908,1.614641 4.56598,3.098583 5.445363,3.60974 0.918757,0.312841 2.132396,0.87771 3.102766,0.329205 0.03569,-0.02016 0.65283,-0.583189 0.36332,-0.785416 -1.139428,-0.795898 -2.407824,-1.38902 -3.611739,-2.083527 -0.124733,0.08145 -0.269788,0.138083 -0.374198,0.24434 -0.115353,0.117388 -0.433033,0.606817 -0.15176,0.797142 1.182209,0.799949 2.416337,1.538443 3.717145,2.126181 0.367921,0.166238 0.823275,-0.608259 0.92152,-0.736113 0.0026,-0.26025 0.110326,-0.541544 0.0078,-0.780754 -0.147052,-0.343027 -0.401619,-0.657315 -0.712681,-0.863552 -1.429226,-0.947592 -2.936441,-1.776802 -4.459163,-2.565432 -0.599827,-0.310655 -2.051696,-0.624956 -2.711797,-0.850657 -0.283117,-0.0968 -0.549942,-0.235939 -0.82491,-0.353909 0.982448,0.533884 1.924122,1.150824 2.947347,1.601655 0.09794,0.04315 -0.05136,-0.213071 -0.03621,-0.319013 0.03757,-0.262742 0.121127,-0.51698 0.192318,-0.772668 0.221067,-0.793959 0.496639,-1.21829 0.256934,-2.102649 -0.125576,-0.463288 -0.432117,-0.857263 -0.648173,-1.285894 -0.346893,-0.379785 -0.658149,-0.795496 -1.040678,-1.139356 -1.264118,-1.136333 -4.890386,-2.846954 -5.48145,-3.103536 -0.03227,-0.014 -1.548825,-0.256503 -1.193839,0.581178 0.163936,0.38685 0.606025,0.582105 0.909039,0.87316 1.625111,0.821031 3.213309,1.719611 4.875329,2.463093 0.678717,0.303615 2.858527,0.804318 3.624919,0.938689 0.393366,0.06897 0.791802,0.113345 1.19068,0.133138 0.142955,0.0071 0.536141,0.03865 0.42612,-0.05291 -1.09338,-0.909833 -2.314432,-1.654244 -3.471648,-2.481366 -0.626478,-0.127904 -1.257451,-0.168587 -1.893679,-0.194373 -0.116588,-0.0047 -0.449305,-0.08175 -0.349393,-0.02148 3.520496,2.123826 3.902163,2.886223 3.208436,1.631995 -0.325409,-0.529085 -0.293505,-0.616445 -0.914482,-0.943563 -1.45188,-0.764817 -2.883345,-1.58469 -4.406818,-2.194544 -0.43933,-0.175868 -0.940663,-0.110048 -1.413217,-0.135252 -1.490585,-0.0795 -1.158502,-0.06938 -2.460347,0.218268 -0.09653,0.187722 -0.327639,0.355534 -0.289599,0.563166 0.05229,0.285416 0.27396,0.5448 0.520583,0.697679 1.38716,0.859883 2.838834,1.619142 4.320572,2.303293 0.388583,0.179417 1.586637,0.378193 2.058191,0.09422 0.187719,-0.113046 0.205534,-0.387075 0.3083,-0.580612 -0.11525,-0.24733 -0.171865,-0.531707 -0.345747,-0.741992 -0.211709,-0.256024 -0.490836,-0.457065 -0.780407,-0.619906 -1.376277,-0.773956 -2.742128,-1.58605 -4.203895,-2.18304 -0.43683,-0.178403 -1.076942,0.154895 -1.244563,0.573511 -0.07319,0.182772 -0.0053,0.393724 -0.008,0.590587 0.152527,0.154988 0.264311,0.3653 0.457576,0.464966 1.328224,0.684966 2.660264,1.38699 4.07385,1.871895 0.246674,0.08462 0.525524,-0.08688 0.75178,-0.216559 0.535334,-0.306824 0.719547,-0.675896 0.559641,-1.289312 -0.06937,-0.266126 -0.272838,-0.477596 -0.409258,-0.716394 -1.806059,-1.415893 -1.564028,-1.303755 -4.976886,-2.815973 -0.141587,-0.06274 -1.005377,-0.110514 -1.193234,0.183533 -0.08606,0.134713 -0.170786,0.387911 -0.03874,0.478002 1.179436,0.804656 2.504242,1.372201 3.756361,2.058302 0.56992,-0.279622 0.682723,-0.187709 0.763479,-0.990087 0.02982,-0.296314 0.03283,-0.618796 -0.09339,-0.888534 -0.497953,-1.064122 -1.504775,-1.714595 -2.466382,-2.291694 -1.5969,-0.958365 -3.24436,-1.82985 -4.866539,-2.744777 -1.236033,-0.502589 -1.795153,-0.836395 -3.06583,-1.010295 -0.291037,-0.03983 -0.601089,-0.08331 -0.881232,0.0051 -0.138536,0.0437 -0.367686,0.261605 -0.255064,0.353346 2.982873,2.42978 2.40448,2.225096 4.447196,2.589834 0.261451,0.01926 0.522256,0.06366 0.784349,0.05782 0.231593,-0.0052 0.466143,-0.02747 0.689015,-0.09064 0.168728,-0.04782 0.341194,-0.117993 0.469371,-0.237685 0.251817,-0.235149 0.325538,-0.683345 -0.04123,-0.91145 -1.262636,-0.785273 -2.628199,-1.391462 -3.942299,-2.087192 -0.219718,0.0109 -0.450514,-0.03706 -0.659151,0.03269 -0.299183,0.10002 -0.61154,0.577754 -0.189114,0.86192 0.369028,0.248247 3.055689,2.476841 4.668554,2.196203 0.250259,-0.04355 0.473943,-0.182978 0.710917,-0.274469 0.67908,-0.368159 0.584486,-1.247917 1.1147,-1.725848 0.535652,-0.482832 1.075635,-0.305151 1.773352,-0.158207 0.772911,0.162782 1.524701,0.41334 2.28705,0.620011 2.920934,0.898316 5.739934,2.087473 8.48438,3.42483 0.755243,0.368028 1.471327,0.816753 2.241336,1.15279 0.524558,0.228923 -0.963102,-0.639961 -1.502794,-0.830482 -0.331859,-0.117155 0.576681,0.403558 0.865021,0.605337 1.250739,1.067642 1.587622,1.40565 3.955619,2.248758 0.280307,0.0998 0.06342,-1.042356 0.06516,-1.053471 0.07859,-0.504163 0.419465,-0.278193 0.785892,-0.235116 0.300064,0.09179 1.162368,0.447767 0.900189,0.275357 -0.690258,-0.453914 -1.387403,-1.00969 -2.204288,-1.132938 -0.446966,-0.06744 0.682865,0.598374 0.970795,0.946832 0.368028,0.4454 0.871469,1.198656 0.809043,1.852719 -0.01802,0.188875 -0.199784,0.322619 -0.299677,0.483928 -0.191156,0.06395 -0.372457,0.176842 -0.573466,0.191847 -0.464823,0.0347 -1.151409,-0.177353 -1.563807,-0.352727 -0.214696,-0.0913 -0.81425,-0.455573 -0.614547,-0.334957 3.599886,2.174272 2.33739,1.052846 3.800432,2.435749 0.363985,0.166624 1.421252,0.72749 1.091952,0.499874 -0.591651,-0.408948 -1.177452,-0.923737 -1.885765,-1.048559 -0.490654,-0.08647 0.801658,0.593815 1.175313,0.923359 0.336556,0.296828 1.166572,0.948332 1.124786,1.586899 -0.01093,0.166851 -0.209169,0.260929 -0.313756,0.391393 -0.670308,0.196799 -0.641032,0.246734 -1.366051,0.212278 -0.121312,-0.0058 -0.450893,-0.150988 -0.356683,-0.07434 1.087538,0.884719 2.607747,1.342776 3.36568,2.522186 1.063432,1.654791 -4.781314,-3.236693 -2.016326,-0.95607 0.170458,0.237101 0.376698,0.452202 0.511374,0.711309 0.112506,0.216453 0.253132,0.455864 0.220974,0.697682 -0.127698,0.960327 -2.582317,0.227322 -2.901542,0.134671 -0.482026,-0.139904 -0.940713,-0.350348 -1.411071,-0.525521 0.849646,0.462907 1.699292,0.925817 2.548935,1.388724 0.04342,0.100343 0.04027,0.238916 0.130247,0.301024 0.233193,0.160957 0.526573,0.210219 0.783508,0.329684 0.361804,0.168225 1.422535,0.723215 1.071811,0.532961 -2.471714,-1.340813 -2.630136,-1.998493 -2.138879,-0.780283 -0.13458,0.186412 -1.389123,-0.585634 -1.021035,-0.497226 0.872496,0.209555 1.654948,1.077098 2.535468,0.904348 0.450985,-0.08848 -0.200292,-0.909097 -0.172908,-1.367861 0.09056,-1.517182 0.39659,-1.488443 1.369592,-2.56273 1.434656,-0.611611 1.49856,-0.797288 3.079176,-0.845116 0.384434,-0.01164 0.767628,0.0621 1.147006,0.125327 0.138573,0.0231 0.512757,0.216416 0.400071,0.132525 -3.558463,-2.649204 -2.516145,-2.088415 -5.158367,-3.207292 -0.657024,-0.327142 -1.343012,-0.601637 -1.971074,-0.981425 -0.206738,-0.125015 0.860313,0.384358 0.693962,0.209153 -0.632161,-0.6658 -1.45919,-1.117901 -2.140799,-1.732981 -0.820349,-0.740277 -2.078652,-1.880819 -2.392479,-3.080543 -0.06882,-0.263092 0.115689,-0.53144 0.173535,-0.797161 0.213328,-0.121727 0.401553,-0.306231 0.63999,-0.365183 0.511863,-0.126561 1.235958,0.0108 1.713486,0.202512 0.196737,0.07899 0.727081,0.43638 0.543769,0.32988 -3.793418,-2.203855 -2.122815,-1.745036 -4.521255,-2.228011 -1.937121,-0.345403 -3.803965,-1.009624 -5.598835,-1.805067 -0.414345,-0.183629 -0.810157,-0.406514 -1.215138,-0.609971 -0.132874,-0.06675 -0.296654,-0.309075 -0.398426,-0.200657 -0.159954,0.170397 -0.0455,0.465201 -0.06825,0.697799 0.113609,0.111037 0.902266,0.875977 0.988229,0.984644 0.09716,0.12282 0.180255,0.262125 0.225909,0.411927 0.0213,0.06991 0.03865,0.219419 -0.03438,0.21654 -0.123933,-0.0049 -0.404783,-0.28303 -0.29293,-0.229436 0.927933,0.444625 1.832099,0.937247 2.748147,1.405869 -0.168918,-0.242416 -0.427212,-0.442695 -0.506751,-0.727255 -0.209291,-0.748749 0.280289,-1.101079 0.862179,-1.420204 0.822286,-0.450966 1.567209,-0.607054 2.504244,-0.485428 0.409451,0.05315 0.790554,0.238575 1.185834,0.357865 0.291557,0.186073 1.194271,0.69047 0.874675,0.558223 -1.030279,-0.426318 -1.969502,-1.06245 -3.016943,-1.44467 -0.176591,-0.06444 -0.35927,0.115985 -0.545018,0.144881 -0.391019,0.06083 -0.78618,0.154183 -1.180719,0.123592 -1.445905,-0.112115 -2.298599,-0.57752 -3.648826,-1.109311 -4.42105,-2.506239 -0.662892,-0.252002 -0.06419,-0.369723 0.328729,-0.06464 -0.315781,-0.624951 -0.29903,-0.959557 0.01408,-0.280934 0.161018,-0.580498 0.384678,-0.75108 0.666747,-0.508516 1.880013,-0.420886 2.601791,-0.453774 0.452868,0.08355 1.700053,0.559657 1.358603,0.250653 -0.754033,-0.682382 -1.786461,-0.972383 -2.684158,-1.45025 -0.112009,-0.05962 -0.218535,-0.146587 -0.344487,-0.16197 -0.385686,-0.0471 -0.782487,0.0433 -1.165437,-0.02244 -1.838545,-0.315589 -2.296724,-0.691512 -4.034623,-1.515001 2.056167,1.062662 0.551394,0.395433 -0.230413,-0.604105 -0.206864,-0.264475 -0.465883,-1.022792 0.133207,-1.158166 0.295458,-0.06676 0.610069,0.02384 0.903166,0.100291 0.412803,0.107685 0.79924,0.298701 1.198859,0.448053 0.381333,0.225377 1.558385,0.832654 1.144003,0.676132 -0.893331,-0.337436 -1.689719,-0.906515 -2.590816,-1.222634 -0.09797,-0.03437 -0.09313,0.20842 -0.189413,0.247285 -0.222006,0.08961 -0.469794,0.127103 -0.708911,0.115305 -1.114716,-0.05499 -1.57026,-0.344802 -2.620357,-0.759759 0.682686,0.368671 1.320999,0.835155 2.048058,1.106011 0.146436,0.05456 -0.251883,-0.270504 -0.20756,-0.420356 0.03217,-0.108776 0.22692,-0.04023 0.339362,-0.02524 0.267203,0.03557 0.535353,0.08541 0.7894,0.175538 0.333881,0.118454 1.274811,0.617403 0.964393,0.44667 -0.817697,-0.449742 -1.65841,-0.856303 -2.487615,-1.284457 0.05331,0.144222 0.237115,0.299675 0.159938,0.432662 -0.07623,0.131358 -0.300336,0.09068 -0.450514,0.06805 -0.447087,-0.06739 -0.88719,-0.186687 -1.314627,-0.334089 -0.580808,-0.200293 -1.582782,-1.308958 -1.702408,-0.70634 -0.122825,0.618728 1.043569,0.785752 1.663543,0.902115 0.312259,0.05861 -0.424397,-0.472911 -0.636595,-0.709366 0.0071,-0.101145 -0.04977,-0.231084 0.02127,-0.30344 0.163335,-0.166373 0.741902,0.148632 0.78324,0.170339 0.179652,0.09433 0.694484,0.418954 0.514319,0.325617 -3.402309,-1.762609 -1.950115,-1.575244 -3.509452,-1.726544 -1.141183,0.02827 -2.260804,-0.143385 -3.351234,-0.475546 -0.343844,-0.104738 -0.676114,-0.244274 -1.014172,-0.366411 0,0 2.987477,2.323232 2.987477,2.323232 v 0 c 1.536687,0.485352 2.976901,0.854036 4.609938,0.674556 0.230574,-0.159806 0.88628,-0.277302 0.691724,-0.479417 -0.965631,-1.003142 -2.269487,-1.61529 -3.437583,-2.373107 -0.470019,-0.304932 -1.395293,-0.503359 -1.74235,0.12963 -0.100139,0.182648 -0.02898,0.415587 -0.04347,0.62338 0.238498,0.290629 0.402222,0.664017 0.715489,0.871887 1.241634,0.823896 4.376732,2.79859 6.402678,3.351765 0.579546,0.158242 1.87911,0.602107 2.314977,-0.290695 0.103611,-0.212228 -0.08555,-0.464526 -0.128323,-0.696788 -0.09624,-0.05911 -3.555545,-2.553756 -5.076729,-2.851931 -0.322895,-0.06329 -0.673394,-0.115133 -0.986992,-0.01553 -0.467185,0.148392 -0.983472,0.771076 -0.345596,1.217803 1.369129,0.958845 2.892147,1.676628 4.33822,2.514944 0.992812,0.342927 2.792034,1.144434 3.794387,0.30661 0.199474,-0.166732 0.519774,-0.527725 0.330829,-0.706303 -1.55276,-1.467551 -3.227882,-2.285193 -5.016653,-3.220053 -0.441682,-0.127338 -0.867407,-0.338836 -1.325047,-0.382016 -0.627673,-0.05923 -1.544513,0.01855 -1.638249,0.877798 -0.03855,0.353422 0.09454,0.734644 0.303056,1.022588 1.197816,1.654074 5.763763,3.826272 6.35567,4.171548 1.741554,0.784402 2.440472,1.255929 4.312012,1.528582 0.450861,0.06568 0.930572,0.109522 1.366679,-0.02238 0.298945,-0.09042 0.949076,-0.401468 0.713835,-0.606909 -2.493782,-2.177883 -2.979724,-2.059617 -5.271232,-2.33508 -0.535165,0.04525 -1.084205,0.0065 -1.605492,0.135753 -0.857665,0.212656 -1.717135,0.570939 -1.792774,1.598691 -0.03052,0.414767 0.01341,0.929733 0.325702,1.204405 1.947177,1.712685 4.053001,2.763761 6.258798,3.947099 1.545878,0.570902 3.532957,1.501632 5.232016,0.880986 0.32729,-0.119558 1.067903,-0.342273 0.847394,-0.612066 -1.265994,-1.548958 -2.741477,-2.219238 -4.352348,-3.023463 -0.412115,-0.0843 -0.816173,-0.232886 -1.236345,-0.252899 -0.465323,-0.02217 -0.939432,0.01606 -1.3917,0.127736 -0.449792,0.11105 -0.88882,0.290525 -1.283714,0.532817 -0.747318,0.458526 -1.260231,0.927013 -1.14909,1.867178 0.03742,0.316566 0.27863,0.573429 0.417946,0.860142 1.32865,0.771726 2.589213,1.674866 3.985951,2.315176 0.484965,0.222321 0.737843,-0.375076 0.709342,-0.672643 -0.04529,-0.472831 -0.38319,-0.762807 -0.692301,-1.072454 -0.140602,-0.140851 -0.295248,-0.266948 -0.442872,-0.40042 -0.158187,0.06736 -0.36811,0.06707 -0.474557,0.202091 -0.05379,0.06823 0.165224,0.05458 0.244935,0.08915 0.375103,0.162698 0.740826,0.346962 1.118982,0.502433 1.868826,0.768319 3.781914,1.456442 5.776764,1.815873 0.475506,0.01669 1.678284,0.453797 1.426517,0.05007 -0.670378,-1.075021 -2.690003,-2.856791 -4.373415,-2.810065 -0.345196,0.0096 -0.706855,0.02732 -1.022302,0.167835 -0.304729,0.135742 -0.516834,0.421926 -0.775253,0.632889 -0.05102,0.361482 -0.245496,0.731276 -0.153053,1.08444 0.331446,1.266245 1.675905,2.500474 2.539849,3.293546 2.77994,2.551904 6.09469,4.437676 9.482627,6.062202 0.545864,0.242165 1.941623,1.240481 1.637593,0.726496 -0.558268,-0.943793 -1.616366,-1.486144 -2.483755,-2.156995 -0.08035,-0.06215 -0.203163,5.3e-4 -0.304747,2.65e-4 -0.370686,-5.29e-4 -0.743484,-0.04234 -1.112057,-0.0028 -1.760146,0.188799 -1.605518,0.285406 -3.217238,1.05518 -1.092107,1.23185 -1.350774,1.138912 -1.544542,2.807144 -0.05849,0.503574 -0.279847,1.139227 0.05498,1.519883 1.079244,1.226961 2.537788,2.067113 3.89744,2.973504 0.265586,0.177051 0.610375,0.28693 0.926428,0.242255 0.250965,-0.03548 0.40419,-0.305943 0.606285,-0.458914 -0.55358,-2.23588 -0.01135,-0.74467 -4.305488,-3.215738 -0.340829,-0.19613 -1.682592,-0.831366 -2.187385,-0.7263 -0.219342,0.04565 -0.612296,0.371372 -0.436896,0.510763 1.186725,0.943086 2.626014,1.514911 3.939022,2.272368 0.996156,0.329491 1.949603,0.726755 3.02446,0.739714 0.743495,0.009 1.647486,-0.06499 1.842008,-0.96879 0.105965,-0.492337 -0.466556,-1.276218 -0.671328,-1.621716 -0.220654,-0.214815 -0.402812,-0.478089 -0.661961,-0.644446 -1.278093,-0.820467 -2.412669,-2.263891 -3.930919,-2.303928 -1.2226,-0.03224 1.876898,1.573186 2.877711,2.276152 0.08931,0.06273 0.21813,-0.01193 0.326409,-0.02558 0.261321,-0.03298 0.530375,-0.036 0.781875,-0.11426 0.275733,-0.08579 0.521462,-0.248269 0.782196,-0.372406 0.149246,-0.238178 0.414062,-0.435486 0.447738,-0.714537 0.0952,-0.788831 -0.699458,-1.414079 -1.160497,-1.8431 -1.960525,-1.824385 -4.393255,-3.073734 -6.850147,-4.102347 -0.331917,0.0095 -1.227375,-0.209452 -0.995751,0.02848 0.821028,0.843375 3.77132,3.210361 5.629428,2.70211 0.259488,-0.07098 0.467897,-0.265626 0.701845,-0.398439 0.126484,-0.246425 0.345479,-0.464372 0.379449,-0.739269 0.09132,-0.738955 -0.393412,-1.547392 -0.794718,-2.089748 -0.271614,-0.367083 -0.545108,-0.755788 -0.9227,-1.012587 -3.746162,-2.547747 -2.846488,-2.252244 -5.322472,-2.743226 -0.280699,0.06999 -0.59839,0.05409 -0.842103,0.209965 -0.257397,0.164626 -0.412483,0.683191 -0.269655,0.970515 0.02809,0.05651 0.13395,-0.02455 0.189216,0.0059 1.101241,0.606943 2.151007,1.305541 3.261273,1.895811 0.192196,0.102179 -0.330303,-0.283586 -0.495456,-0.425376 -4.029789,-2.795786 -8.877908,-5.134369 -13.488191,-6.866361 -0.952622,-0.357881 -1.923182,-0.666059 -2.884773,-0.999088 -1.211882,-0.333928 -2.669884,-0.965089 -4.01242,-0.709557 -0.442891,0.0843 -0.796374,0.621745 -0.980143,0.97459 -0.08996,0.172728 -0.105709,0.380471 -0.208923,0.545621 -0.100492,0.160798 -0.260369,0.275728 -0.390552,0.413592 -0.205015,0.04994 -0.404082,0.145214 -0.615039,0.149825 -0.235416,0.0051 -0.882777,-0.264493 -0.695945,-0.121171 0.855938,0.656603 1.891343,1.052065 2.753945,1.699892 0.116837,0.08775 -0.292997,0.06823 -0.436472,0.04057 -0.237239,-0.04573 2.012923,-0.784304 0.72313,-0.04945 -0.917485,-0.580896 -1.874743,-1.103278 -2.752453,-1.742684 -0.153328,-0.111699 0.707591,-0.02244 0.407554,0.220205 -0.240652,0.194606 -0.729967,0.204203 -0.985314,0.192127 -0.253656,-0.01198 -0.502991,-0.07027 -0.754486,-0.105412 -0.237037,-0.08013 -0.904901,-0.398688 -0.711112,-0.240403 0.871355,0.711718 1.853874,1.275381 2.772862,1.924428 0.02731,0.01929 -0.128132,-0.03151 -0.09473,-0.03296 1.377162,-0.05992 2.397919,0.433808 3.641934,1.002467 -0.432763,-0.275961 -1.715992,-1.126146 -1.298292,-0.827879 0.868733,0.620332 1.820151,0.965819 2.391334,1.91875 0.125783,0.209849 0.121922,0.4776 0.131701,0.722064 0.0056,0.139764 0.01339,0.312603 -0.08639,0.410644 -0.09217,0.09058 -0.256143,0.03454 -0.384212,0.05181 4.799716,2.962939 3.880832,1.219835 2.672832,2.020929 -0.06407,0.04249 0.136691,-0.08607 0.213561,-0.08708 0.234502,-0.0031 0.875334,0.230375 0.699545,0.07514 -0.704012,-0.621713 -1.583378,-1.011259 -2.359144,-1.540732 -0.259213,-0.176916 0.539009,0.321604 0.808513,0.482404 0.09143,0.104053 0.71614,0.680871 0.622412,0.984353 -0.05408,0.175109 -0.243896,0.290465 -0.411475,0.364657 -0.215247,0.0953 -0.862735,-0.03995 -0.69501,0.125217 1.632312,1.607462 3.906721,2.130631 2.092454,1.659511 -0.08292,-0.147441 -0.349498,-0.414139 0.03282,-0.524354 0.226224,-0.06521 0.875691,0.142476 0.706003,-0.02074 -0.673737,-0.648002 -1.564793,-1.023287 -2.337877,-1.548807 -0.418772,-0.284668 1.433166,0.878845 1.254387,0.856824 -0.04352,0.456647 0.04763,0.437401 -0.774147,0.34518 -0.390607,-0.04384 -1.408596,-0.577318 -1.143741,-0.286895 0.595837,0.653349 1.517309,0.916628 2.21429,1.46078 0.185989,0.145209 -0.475988,-0.104799 -0.662543,-0.249285 -0.07436,-0.05759 -0.01498,-0.187507 -0.02249,-0.28126 1.151681,-0.248864 0.96602,-0.288113 2.320329,-0.16207 0.474848,0.04419 1.653897,0.629885 1.414037,0.217696 -0.441606,-0.758883 -1.462696,-0.973669 -2.162514,-1.503926 -0.302281,-0.229042 1.09868,0.595326 0.969994,0.594648 -0.109614,1.722573 -0.144158,0.480743 3.504859,2.434638 0.08878,0.04754 0.201459,-0.0077 0.302088,-0.0038 0.190077,0.0073 0.38064,0.01402 0.569434,0.03723 0.637278,0.07838 0.680646,0.117885 1.279215,0.297043 -0.944427,-0.736865 -1.852091,-1.523445 -2.833285,-2.210594 -0.06629,-0.04642 -0.153832,0.06382 -0.234741,0.062 -0.355095,-0.008 -0.711544,-0.0313 -1.061641,-0.09118 -0.573151,-0.09804 -1.14119,-0.22859 -1.702178,-0.381572 -0.634802,-0.173109 -1.507837,-1.137113 -1.881881,-0.595791 -0.35801,0.518118 0.998771,0.767413 1.498158,1.15112 -0.32934,-0.120108 -0.679701,-0.193503 -0.988023,-0.360323 -0.06068,-0.03283 -0.117009,-0.187256 -0.0494,-0.200985 1.155007,-0.234516 2.437389,1.350303 -1.320392,-1.34905 -0.781617,-0.561461 3.350275,2.092439 2.250791,1.808157 0.226542,0.368049 0.54074,0.694886 0.679622,1.104141 0.339559,1.000607 -0.285752,1.864146 -0.541559,2.776331 -0.05998,0.213895 -0.293336,0.515647 -0.120674,0.655418 1.114406,0.902126 2.453611,1.484159 3.680417,2.226241 1.179698,0.412414 0.511419,0.193808 2.012305,0.632542 0.474771,0.161184 1.715675,0.929609 1.405556,0.535633 -0.470823,-0.598133 -1.263721,-0.854257 -1.936567,-1.21023 -0.281276,-0.14881 0.556101,0.336076 0.754518,0.584861 0.108249,0.135726 0.07783,0.338381 0.116742,0.507572 -0.09284,0.101938 -0.153901,0.246813 -0.278519,0.305816 -0.117819,0.05578 -0.496978,-0.06464 -0.390914,0.01114 0.953664,0.681429 2.020813,1.19104 2.991924,1.847368 0.07831,0.05293 -0.212955,0.04679 -0.283083,-0.01659 -0.09599,-0.08675 0.33251,-0.352579 0.334611,-0.196694 -1.035466,-0.661604 -2.077421,-1.313156 -3.106397,-1.984807 -0.05505,-0.03593 0.179846,0.01024 0.182013,0.07595 0.003,0.08955 -0.09244,0.166163 -0.172718,0.205949 -0.159956,0.07928 -0.339413,0.134718 -0.51793,0.136342 -0.956161,0.0087 -1.348597,-0.253378 -2.268153,-0.600122 3.62975,2.236697 1.589079,1.121447 0.883189,0.289824 -0.124296,-0.146439 -0.753268,-1.123569 -0.463671,-1.490734 0.187711,-0.237987 0.526393,-0.32861 0.824486,-0.383519 0.42984,-0.07918 0.874117,-0.0066 1.311177,-0.0099 2.135143,0.417177 1.850163,0.541023 -0.925004,-1.265729 -0.134747,-0.08773 0.307044,0.158194 0.37433,0.304228 0.04478,0.09717 -0.01315,0.235614 -0.09254,0.307343 -0.31836,0.287652 -0.698918,0.238318 -1.083313,0.260001 0.952955,0.650623 1.895949,1.316085 2.858871,1.951868 0.0594,0.03922 -0.166119,-0.09134 -0.142934,-0.158628 0.04373,-0.126932 0.176938,-0.208767 0.292849,-0.2765 0.539322,-0.315156 1.193419,-0.390536 1.799992,-0.451795 0,0 -3.184115,-2.313398 -3.184115,-2.313398 z" />
  </g>
  <metadata
     id="metadata4728">
    <rdf:RDF>
      <cc:Work
         rdf:about="">
        <dc:title>myfirsthouse</dc:title>
      </cc:Work>
    </rdf:RDF>
  </metadata>
</svg>
